<?xml version="1.0" encoding="utf-8"?>
<!-- Generator: Adobe Illustrator 22.0.1, SVG Export Plug-In . SVG Version: 6.00 Build 0)  -->
<svg version="1.1" id="Layer_1" xmlns="http://www.w3.org/2000/svg" xmlns:xlink="http://www.w3.org/1999/xlink" x="0px" y="0px"
	 viewBox="0 0 30 30" style="enable-background:new 0 0 30 30;" xml:space="preserve">
<style type="text/css">
	.st0{fill:#19967D;}
	.st1{fill:#FFFFFF;}
	.st2{font-family:'Calibri';}
	.st3{font-size:6px;}
</style>
<circle class="st0" cx="15" cy="15" r="10"/>
<g>
	<text transform="matrix(1 0 0 1 7.178 14.7324)" class="st1 st2 st3">Mood</text>
	<g>
		<text transform="matrix(1 0 0 1 7.178 19.9324)" class="st1 st2 st3">Music</text>
		<path class="st1" d="M22.8,11.3c-0.1-0.2-0.2-0.4-0.3-0.6c0,0,0,0,0,0c0,0,0,0,0,0c-0.1-0.1-0.2-0.2-0.4-0.3c0,0-0.1,0-0.1,0
			c0,0,0,0-0.1,0c0,0,0,0,0,0c-0.4-0.2-0.7-0.6-0.7-1c0-0.1,0-0.2,0.1-0.3c0-0.1,0-0.1,0-0.2c0,0,0,0,0,0v0h0h-0.5v2.1v0.2h0.2
			c0,0,0,0,0,0c0.1,0,0.2-0.1,0.3-0.1c0.6,0,1,0.7,1,1.6c0,0.3,0,0.5-0.1,0.8c0,0,0.1,0,0.1,0C22.8,13,23,12.1,22.8,11.3z"/>
	</g>
</g>
</svg>
